<svg width="70" height="74" viewBox="0 0 70 74" fill="none" xmlns="http://www.w3.org/2000/svg">
<path fill-rule="evenodd" clip-rule="evenodd" d="M45.1338 2.68149C38.5555 1.1236 31.1197 0.711608 25.3665 4.8317C25.0021 5.09236 24.5387 4.47512 24.8927 4.20586C31.7896 -1.04455 41.0184 -0.104897 48.8848 2.11233C57.7737 4.6186 66.6187 9.41717 68.9365 19.0518C70.5847 25.9014 68.8491 33.4919 64.6704 39.1212C61.3637 43.5757 56.6277 46.7008 51.4341 48.5353C51.4001 51.7869 50.5853 55.0541 49.1109 57.9379C45.4259 65.1461 37.6505 69.5453 29.9136 71.0175C22.6582 72.3985 15.3063 71.4209 8.2196 69.5656C9.0992 70.1746 9.98835 70.7713 10.8829 71.3624C12.2568 72.2703 11.0061 74.4759 9.59582 73.5917C6.6524 71.7468 3.92678 69.6039 1.28777 67.351C1.04525 67.144 0.938704 66.8674 0.935041 66.5841C0.795903 66.3612 0.779387 66.0629 1.00899 65.8592C3.89321 63.2988 7.01776 61.521 10.4896 59.8846C11.815 59.2598 12.8216 61.0293 11.6133 61.8555C9.60258 63.2302 7.53665 64.5316 5.47263 65.8318C5.38592 65.8864 5.2992 65.9411 5.21249 65.9957C12.9573 68.3528 21.1952 70.0197 29.2339 68.4806C36.896 67.0141 44.6839 62.6093 47.6338 55.0183C48.3375 53.2076 48.7628 51.2711 48.8794 49.3252C47.6311 49.6581 46.3661 49.9202 45.0972 50.112C37.1168 51.3185 27.6807 50.3246 21.0515 45.3731C18.2986 43.3167 15.0089 39.7538 15.8398 35.9837C16.689 32.1311 21.0742 30.6415 24.5235 30.1985C32.6318 29.1562 42.7498 30.7131 47.9945 37.6145C49.9905 40.2411 51.0718 43.3547 51.3575 46.5636C51.8821 46.3674 52.4011 46.157 52.9136 45.9323C58.9954 43.2659 63.9783 38.5411 66.286 32.2461C68.4058 26.4643 68.3502 19.7058 65.1166 14.3384C60.9769 7.46557 52.5504 4.43795 45.1338 2.68149ZM48.8917 47.3708C48.7058 43.514 47.2592 39.7745 44.3146 37.0691C41.3602 34.3544 37.4008 33.0471 33.4951 32.4779C29.8174 31.9421 25.4684 31.7149 21.8973 32.9017C19.8559 33.58 17.6024 34.9366 17.7303 37.3925C17.8394 39.4919 19.519 41.4007 20.9731 42.7601C24.0706 45.6556 28.2313 47.161 32.3285 47.9652C37.7499 49.0292 43.5361 48.8854 48.8917 47.3708Z" fill="#FFF152"/>
</svg>
