<svg width="161" height="55" viewBox="0 0 161 55" fill="none" xmlns="http://www.w3.org/2000/svg">
<path d="M4.89363 27.58C-0.00894132 33.7136 32.2806 44.6971 35.9375 45.6087C48.0154 48.618 60.5919 49.3611 72.963 48.0945C102.594 45.0655 129.818 30.4021 153.022 12.3796C153.514 14.1942 154.007 16.0098 154.499 17.8235C144.067 14.1854 133.635 10.5473 123.203 6.90919C119.236 5.52412 120.771 -0.638883 124.91 0.532281C135.875 3.64044 146.828 6.7686 157.787 9.88719C159.485 10.3713 160.633 12.196 160.129 13.943C156.759 25.7294 151.48 36.7482 144.327 46.7102C141.849 50.1566 136.063 46.889 138.562 43.4184C145.404 33.9005 150.498 23.5027 153.728 12.2309C154.508 13.5825 155.289 14.935 156.07 16.2867C145.117 13.1595 134.158 10.0418 123.203 6.90919C123.772 4.78326 124.341 2.65821 124.91 0.532281C135.334 4.19746 145.757 7.8609 156.189 11.5192C158.205 12.2272 159.791 15.3224 157.666 16.964C130.826 37.7165 99.015 54.0322 64.3975 54.4236C50.0051 54.5859 35.6454 52.0171 22.3987 46.3264C17.8892 44.3884 -6.09571 33.6694 2.81456 25.5305C4.22602 24.2417 6.05165 26.1326 4.89363 27.58Z" fill="#FFF152"/>
</svg>
