<svg width="36" height="36" viewBox="0 0 36 36" fill="none" xmlns="http://www.w3.org/2000/svg">
<path d="M35.5 14.4V31.75C35.4971 32.7437 35.1011 33.6958 34.3984 34.3985C33.6958 35.1011 32.7437 35.4971 31.75 35.5H4.25C3.25633 35.4971 2.30419 35.1011 1.60156 34.3985C0.898922 33.6958 0.502903 32.7437 0.500001 31.75V14.4C0.49967 13.7598 0.662465 13.13 0.973024 12.5701C1.28358 12.0102 1.73167 11.5387 2.275 11.2L6.1625 9.13751C6.35233 9.03328 6.56615 8.98055 6.78268 8.98459C6.99921 8.98863 7.21091 9.04928 7.39673 9.16052C7.58255 9.27175 7.73601 9.4297 7.84184 9.61865C7.94768 9.80759 8.00221 10.021 8 10.2375V17.4375L15.4625 21.4625L18 22.825L20.5375 21.4625L28 17.4375V10.2375C27.9978 10.021 28.0523 9.80759 28.1582 9.61865C28.264 9.4297 28.4174 9.27175 28.6033 9.16052C28.7891 9.04928 29.0008 8.98863 29.2173 8.98459C29.4339 8.98055 29.6477 9.03328 29.8375 9.13751L33.65 11.1625C34.2118 11.4963 34.6775 11.97 35.0017 12.5374C35.3259 13.1048 35.4976 13.7465 35.5 14.4Z" fill="#4294FF"/>
<path d="M35.5 14.4V16.25L18.5875 25.35C18.4073 25.4485 18.2053 25.5001 18 25.5001C17.7947 25.5001 17.5927 25.4485 17.4125 25.35L0.500001 16.25V14.4C0.49967 13.7598 0.662465 13.13 0.973024 12.5701C1.28358 12.0102 1.73167 11.5387 2.275 11.2L6.1625 9.13751C6.35233 9.03328 6.56615 8.98055 6.78268 8.98459C6.99921 8.98863 7.21091 9.04928 7.39673 9.16052C7.58255 9.27175 7.73601 9.4297 7.84184 9.61865C7.94768 9.80759 8.00221 10.021 8 10.2375V17.4375L18 22.825L28 17.4375V10.2375C27.9978 10.021 28.0523 9.80759 28.1582 9.61865C28.264 9.4297 28.4174 9.27175 28.6033 9.16052C28.7891 9.04928 29.0008 8.98863 29.2173 8.98459C29.4339 8.98055 29.6477 9.03328 29.8375 9.13751L33.65 11.1625C34.2118 11.4963 34.6775 11.97 35.0017 12.5374C35.3259 13.1048 35.4976 13.7465 35.5 14.4Z" fill="#376CFB"/>
<path d="M30.2375 35.5008H4.25001C3.25634 35.4979 2.3042 35.1019 1.60157 34.3992C0.898936 33.6966 0.502916 32.7444 0.500014 31.7508V14.4008C0.498426 13.8258 0.629571 13.2582 0.883239 12.7422C1.13691 12.2262 1.50625 11.7757 1.96251 11.4258C3.06251 19.5508 8.21251 33.3758 30.2375 35.5008Z" fill="#2965ED"/>
<path d="M35.5 31.1012V31.7512C35.4971 32.7449 35.1011 33.697 34.3984 34.3997C33.6958 35.1023 32.7437 35.4983 31.75 35.5012H4.25C3.25633 35.4983 2.30419 35.1023 1.60156 34.3997C0.898922 33.697 0.502902 32.7449 0.5 31.7512V31.1012L14.15 21.5387C14.3412 21.4079 14.5645 21.3317 14.7958 21.3185C15.0271 21.3053 15.2576 21.3555 15.4625 21.4637L18 22.8262L20.5375 21.4637C20.7424 21.3555 20.9729 21.3053 21.2042 21.3185C21.4355 21.3317 21.6588 21.4079 21.85 21.5387L35.5 31.1012Z" fill="#376CFB"/>
<path d="M3.60001 17.9133L0.500014 16.2508V14.4008C0.498426 13.8258 0.629571 13.2582 0.883239 12.7422C1.13691 12.2262 1.50625 11.7757 1.96251 11.4258C2.25933 13.6436 2.80873 15.8203 3.60001 17.9133Z" fill="#2045CE"/>
<path d="M30.2375 35.5H4.25C3.25633 35.4971 2.30419 35.1011 1.60156 34.3984C0.898922 33.6958 0.502902 32.7437 0.5 31.75V31.1L8.2375 25.6875C12.4125 30.4375 19.2125 34.4375 30.2375 35.5Z" fill="#2045CE"/>
<path d="M29.25 0.5H6.75C6.41848 0.5 6.10054 0.631696 5.86612 0.866116C5.6317 1.10054 5.5 1.41848 5.5 1.75V18.9336L17.4074 25.3499C17.5894 25.4484 17.793 25.5 18 25.5C18.207 25.5 18.4106 25.4484 18.5926 25.3499L30.5 18.9336V1.75C30.5 1.41848 30.3683 1.10054 30.1339 0.866116C29.8995 0.631696 29.5815 0.5 29.25 0.5Z" fill="#E6ECFF"/>
<path d="M22.325 23.3375L18.5875 25.35C18.4073 25.4485 18.2053 25.5001 18 25.5001C17.7947 25.5001 17.5927 25.4485 17.4125 25.35L5.5 18.9375V1.75C5.50096 1.41877 5.63296 1.10139 5.86717 0.867173C6.10139 0.632959 6.41877 0.500956 6.75 0.5H11.2875C11.875 7.6625 14.45 17.5375 22.325 23.3375Z" fill="#B7C6E2"/>
<path d="M24.25 8H11.75C11.4185 8 11.1005 7.8683 10.8661 7.63388C10.6317 7.39946 10.5 7.08152 10.5 6.75C10.5 6.41848 10.6317 6.10054 10.8661 5.86612C11.1005 5.6317 11.4185 5.5 11.75 5.5H24.25C24.5815 5.5 24.8995 5.6317 25.1339 5.86612C25.3683 6.10054 25.5 6.41848 25.5 6.75C25.5 7.08152 25.3683 7.39946 25.1339 7.63388C24.8995 7.8683 24.5815 8 24.25 8Z" fill="#4294FF"/>
<path d="M24.25 13H11.75C11.4185 13 11.1005 12.8683 10.8661 12.6339C10.6317 12.3995 10.5 12.0815 10.5 11.75C10.5 11.4185 10.6317 11.1005 10.8661 10.8661C11.1005 10.6317 11.4185 10.5 11.75 10.5H24.25C24.5815 10.5 24.8995 10.6317 25.1339 10.8661C25.3683 11.1005 25.5 11.4185 25.5 11.75C25.5 12.0815 25.3683 12.3995 25.1339 12.6339C24.8995 12.8683 24.5815 13 24.25 13Z" fill="#4294FF"/>
<path d="M24.25 18H11.75C11.4185 18 11.1005 17.8683 10.8661 17.6339C10.6317 17.3995 10.5 17.0815 10.5 16.75C10.5 16.4185 10.6317 16.1005 10.8661 15.8661C11.1005 15.6317 11.4185 15.5 11.75 15.5H24.25C24.5815 15.5 24.8995 15.6317 25.1339 15.8661C25.3683 16.1005 25.5 16.4185 25.5 16.75C25.5 17.0815 25.3683 17.3995 25.1339 17.6339C24.8995 17.8683 24.5815 18 24.25 18Z" fill="#4294FF"/>
<path d="M12.575 8H11.75C11.4185 8 11.1005 7.8683 10.8661 7.63388C10.6317 7.39946 10.5 7.08152 10.5 6.75C10.5 6.41848 10.6317 6.10054 10.8661 5.86612C11.1005 5.6317 11.4185 5.5 11.75 5.5H11.9875C12.15 6.325 12.35 7.1625 12.575 8Z" fill="#2965ED"/>
<path d="M14.325 13H11.75C11.4185 13 11.1005 12.8683 10.8661 12.6339C10.6317 12.3995 10.5 12.0815 10.5 11.75C10.5 11.4185 10.6317 11.1005 10.8661 10.8661C11.1005 10.6317 11.4185 10.5 11.75 10.5H13.35C13.6292 11.3505 13.9547 12.185 14.325 13Z" fill="#2965ED"/>
<path d="M17.125 18H11.75C11.4185 18 11.1005 17.8683 10.8661 17.6339C10.6317 17.3995 10.5 17.0815 10.5 16.75C10.5 16.4185 10.6317 16.1005 10.8661 15.8661C11.1005 15.6317 11.4185 15.5 11.75 15.5H15.55C16.0304 16.3606 16.5561 17.1951 17.125 18Z" fill="#2965ED"/>
</svg>
