<svg width="84" height="78" viewBox="0 0 84 78" fill="none" xmlns="http://www.w3.org/2000/svg">
<path fill-rule="evenodd" clip-rule="evenodd" d="M68.1578 6.74361C61.4095 3.1188 53.3813 0.502153 45.8525 3.3498C45.3757 3.52983 45.051 2.71746 45.5189 2.52494C54.6366 -1.23046 64.4736 2.48727 72.4381 7.21073C81.4378 12.5491 89.709 20.3907 89.3907 31.6407C89.1649 39.6386 85.0101 47.4651 78.7594 52.4275C73.8131 56.3544 67.6946 58.406 61.4575 58.9079C60.4554 62.467 58.5928 65.816 56.121 68.5521C49.943 75.3914 40.1148 77.9568 31.1975 77.3206C23.6201 76.7805 16.5304 74.0917 9.89653 70.5419C10.1586 70.8399 10.4217 71.1373 10.6854 71.4342C11.9904 72.9031 9.91454 75.012 8.56109 73.5586C6.41089 71.25 4.45551 68.7854 2.60452 66.2406C2.31312 66.0547 2.02267 65.868 1.73318 65.6807C1.12075 65.2843 0.958626 64.6603 1.08163 64.0991C1.01764 64.0073 0.953762 63.9154 0.889974 63.8234C0.673325 63.5109 0.632533 63.1626 0.711311 62.8395C0.617508 62.5419 0.68598 62.1976 1.00813 62.0391C5.05548 60.0464 9.14843 59.0196 13.597 58.2638C15.2954 57.9753 15.928 60.3066 14.3046 60.8613C11.6032 61.7842 8.8601 62.6063 6.11957 63.4276C5.57729 63.5901 5.0351 63.7526 4.49336 63.9158C12.5827 69.045 21.4914 73.6564 31.2052 74.3382C40.0389 74.9588 49.8824 72.3909 55.3683 64.9176C56.6769 63.1349 57.7176 61.1331 58.4229 59.0312C56.9558 59.0332 55.4915 58.9527 54.0438 58.7939C44.9382 57.7953 34.8902 53.9576 29.0931 46.593C26.6857 43.5346 24.1371 38.6663 26.1665 34.77C28.2405 30.7885 33.4892 30.4299 37.4015 30.9477C46.5983 32.1638 57.2268 36.8178 60.9278 45.9196C62.3363 49.3837 62.5976 53.116 61.9587 56.7213C62.5919 56.6587 63.2231 56.5789 63.8516 56.4814C71.3091 55.325 78.1729 51.5894 82.5703 45.3515C86.6095 39.6223 88.5539 32.1878 86.6022 25.3551C84.104 16.6064 75.766 10.8304 68.1578 6.74361ZM59.0162 56.8896C59.9569 52.6021 59.4809 48.0765 57.0561 44.2499C54.6232 40.4102 50.6712 37.8227 46.559 36.0611C42.6868 34.4024 37.9872 32.8872 33.7207 33.1503C31.2818 33.3007 28.4092 34.1338 27.8207 36.8667C27.3173 39.2027 28.5919 41.7867 29.7825 43.7022C32.3184 47.782 36.4324 50.6455 40.6847 52.7208C46.3115 55.4667 52.6965 56.9932 59.0162 56.8896Z" fill="#FFF152"/>
</svg>
