<svg width="34" height="101" viewBox="0 0 34 101" fill="none" xmlns="http://www.w3.org/2000/svg">
<path d="M16.9405 97.9924C20.7737 101.051 27.6663 80.8717 28.2391 78.5866C30.1298 71.0393 30.6034 63.1822 29.8196 55.4548C27.9456 36.9462 18.7923 19.9496 7.5352 5.46612C8.67061 5.15735 9.80659 4.84825 10.9414 4.5398C8.65855 11.0593 6.37565 17.5787 4.09275 24.0982C3.22363 26.5772 -0.630317 25.6224 0.105127 23.0361C2.0569 16.184 4.02119 9.33941 5.97949 2.49091C6.28347 1.43005 7.42567 0.711581 8.51806 1.02526C15.8882 3.12247 22.7769 6.41255 29.0033 10.8744C31.1573 12.4196 29.1093 16.0367 26.9402 14.4781C20.9914 10.2101 14.491 7.03523 7.44267 5.02521C8.28868 4.53677 9.13523 4.04801 9.98125 3.55957C8.01753 10.4038 6.05979 17.252 4.09275 24.0982C2.76336 23.7443 1.43452 23.39 0.105127 23.0361C2.40495 16.5216 4.70369 10.0078 6.99921 3.48842C7.44347 2.22853 9.38065 1.23552 10.406 2.56179C23.3683 19.3145 33.5518 39.1758 33.7726 60.8013C33.8642 69.7923 32.2474 78.7647 28.6787 87.0439C27.4633 89.8623 20.7419 104.853 15.6571 99.2927C14.8519 98.4118 16.036 97.27 16.9405 97.9924Z" fill="#FFF152"/>
</svg>
