<svg width="40" height="40" viewBox="0 0 40 40" fill="none" xmlns="http://www.w3.org/2000/svg">
<path d="M33.8041 24.0461L30.7025 22.2988L28.8435 30.267L36.7522 38.2352L38.5894 39.2702C39.0823 39.5479 39.6527 39.0573 39.4519 38.5284L34.0728 24.3584C34.0225 24.2261 33.9274 24.1155 33.8041 24.0461Z" fill="#FFBE3B"/>
<path d="M26.9975 20.2109L23.6702 27.327L30.0224 34.4431L36.7521 38.2345L30.7025 22.2982L26.9975 20.2109Z" fill="#FFD45E"/>
<path d="M26.9974 20.2109L19.9999 24.1529L16.3701 32.0765L19.9999 40.0001C20.1023 40.0001 20.2047 39.9741 20.2969 39.9222L30.0223 34.4431L26.9974 20.2109Z" fill="#FFE88C"/>
<path d="M13.0025 20.2109L6.6521 27.327L9.97766 34.4431L19.7031 39.9222C19.7953 39.9741 19.8976 40.0001 20 40.0001V24.1529L13.0025 20.2109Z" fill="#FFD45E"/>
<path d="M13.0025 20.2109L9.97762 34.4431L1.41067 39.2695C0.917744 39.5472 0.347378 39.0567 0.548147 38.5277L5.92722 24.3578C5.97747 24.2254 6.07249 24.1149 6.19591 24.0454L13.0025 20.2109Z" fill="#FFE88C"/>
<path d="M20 0V30.2485C20.4311 30.2485 20.8084 30.0224 21.0227 29.6831C21.0242 29.6831 29.2177 16.6899 29.2177 16.6899C30.276 15.0104 30.8895 13.0217 30.8895 10.8895C30.8895 4.87542 26.0141 0 20 0Z" fill="#FC5E32"/>
<path d="M20.7955 29.6831C20.7966 29.6831 27.1694 16.6899 27.1694 16.6899C27.9925 15.0104 28.4697 13.0217 28.4697 10.8895C28.4697 4.87542 24.6777 0 20.0001 0C13.9859 0 9.1106 4.87542 9.1106 10.8895C9.1106 13.0217 9.72396 15.0105 10.7831 16.6899C10.7823 16.6899 18.9758 29.6831 18.9758 29.6831C19.1916 30.0224 19.569 30.2485 20 30.2485C20.3353 30.2485 20.6288 30.0224 20.7955 29.6831Z" fill="#FF7D4A"/>
<path d="M19.9999 16.9393C23.3411 16.9393 26.0496 14.2307 26.0496 10.8895C26.0496 7.54839 23.3411 4.83984 19.9999 4.83984C16.6587 4.83984 13.9502 7.54839 13.9502 10.8895C13.9502 14.2307 16.6587 16.9393 19.9999 16.9393Z" fill="white"/>
<path d="M20 7.25977V14.5194C22.0047 14.5194 23.6298 12.8943 23.6298 10.8896C23.6298 8.88488 22.0047 7.25977 20 7.25977Z" fill="#FF7D4A"/>
<path d="M21.2099 10.8896C21.2099 8.88488 20.6681 7.25977 19.9999 7.25977C17.9952 7.25977 16.3701 8.88488 16.3701 10.8896C16.3701 12.8943 17.9952 14.5194 19.9999 14.5194C20.6681 14.5194 21.2099 12.8943 21.2099 10.8896Z" fill="#FF9A6B"/>
</svg>
