<svg width="27" height="27" viewBox="0 0 27 27" fill="none" xmlns="http://www.w3.org/2000/svg">
<path d="M11.1927 15.8084C8.61312 13.2286 8.03066 10.6488 7.89879 9.61524C7.86249 9.32941 7.96096 9.04292 8.16533 8.83982L10.2519 6.75308C10.559 6.44617 10.6135 5.96786 10.3833 5.59973L7.06052 0.438318C6.80588 0.0306843 6.28302 -0.116435 5.8532 0.0986044L0.517408 2.61174C0.169824 2.7829 -0.0346206 3.15223 0.00484373 3.53768C0.284424 6.19388 1.44189 12.7235 7.85872 19.1407C14.2756 25.558 20.8047 26.7156 23.4626 26.9952C23.848 27.0346 24.2173 26.8302 24.3884 26.4826L26.9014 21.1464C27.1164 20.7165 26.9693 20.1937 26.5617 19.939L21.4002 16.6178C21.0324 16.3876 20.5544 16.4417 20.2474 16.7483L18.1608 18.836C17.9576 19.0405 17.6709 19.1389 17.385 19.1021C16.3519 18.9706 13.7723 18.3881 11.1927 15.8084Z" fill="#2FA8CC"/>
<path d="M21.1429 14C20.6695 14 20.2857 13.6162 20.2857 13.1429C20.2817 9.59412 17.4059 6.7183 13.8571 6.71429C13.3838 6.71429 13 6.33053 13 5.85714C13 5.38376 13.3838 5 13.8571 5C18.3523 5.00496 21.995 8.64774 22 13.1429C22 13.6162 21.6162 14 21.1429 14Z" fill="#F0C419"/>
<path d="M26.0968 14C25.5979 14 25.1935 13.5956 25.1935 13.0968C25.1866 6.86419 20.1358 1.81342 13.9032 1.80645C13.4044 1.80645 13 1.40206 13 0.903226C13 0.404388 13.4044 0 13.9032 0C21.1331 0.00796459 26.992 5.86693 27 13.0968C27 13.3363 26.9048 13.5661 26.7355 13.7355C26.5661 13.9048 26.3363 14 26.0968 14Z" fill="#F0C419"/>
</svg>
