<svg xmlns="http://www.w3.org/2000/svg" version="1.1" xmlns:xlink="http://www.w3.org/1999/xlink"
    xmlns:svgjs="http://svgjs.com/svgjs" width="512" height="512" x="0" y="0" viewBox="0 0 256 256"
    style="enable-background:new 0 0 512 512" xml:space="preserve">
    <g>
        <g>
            <g>
                <g>
                    <g>
                        <g>
                            <path d="m99.627 198.488h56.746v31.779h-56.746z" fill="#939598" data-original="#939598">
                            </path>
                        </g>
                        <g>
                            <path d="m151.373 198.488v21.779c0 2.761-2.239 5-5 5h-46.746v5h56.746v-31.779z"
                                fill="#808285" data-original="#808285"></path>
                        </g>
                        <g>
                            <path
                                d="m75.339 250.195h105.321c3.72 0 6.137-3.918 4.469-7.243l-3.598-7.17c-1.696-3.381-5.155-5.515-8.938-5.515h-89.187c-3.782 0-7.241 2.134-8.938 5.515l-3.598 7.17c-1.668 3.325.749 7.243 4.469 7.243z"
                                fill="#58595B" data-original="#58595b"></path>
                        </g>
                        <g>
                            <path
                                d="m185.13 242.952-3.598-7.17c-1.045-2.082-2.761-3.686-4.807-4.615l3.405 6.785c1.669 3.325-.749 7.243-4.469 7.243h-105.318c.002 2.622 2.099 5 4.996 5h105.321c3.721 0 6.138-3.918 4.47-7.243z"
                                fill="#414042" data-original="#414042"></path>
                        </g>
                        <g>
                            <path
                                d="m21.315 198.488h213.37c5.523 0 10-4.477 10-10v-146.292c0-5.523-4.477-10-10-10h-213.37c-5.523 0-10 4.477-10 10v146.292c0 5.523 4.477 10 10 10z"
                                fill="#58595B" data-original="#58595b"></path>
                        </g>
                        <g>
                            <path
                                d="m238.794 33.087c.567 1.255.89 2.643.89 4.11v146.292c0 5.523-4.477 10-10 10h-213.369c-1.466 0-2.855-.323-4.11-.89 1.569 3.471 5.053 5.89 9.11 5.89h213.37c5.523 0 10-4.477 10-10v-146.293c0-4.056-2.42-7.541-5.891-9.109z"
                                fill="#414042" data-original="#414042"></path>
                        </g>
                        <g>
                            <path
                                d="m137.667 189.085h-19.333c-2.209 0-4-1.791-4-4 0-2.209 1.791-4 4-4h19.333c2.209 0 4 1.791 4 4 0 2.209-1.791 4-4 4z"
                                fill="#B2B0AD" data-original="#b2b0ad"></path>
                        </g>
                        <g>
                            <path
                                d="m24.829 171.222h206.343c2.761 0 5-2.239 5-5v-119.76c0-2.761-2.239-5-5-5h-206.343c-2.761 0-5 2.239-5 5v119.761c0 2.761 2.238 4.999 5 4.999z"
                                fill="#478CF7" data-original="#478cf7"></path>
                        </g>
                        <g>
                            <path
                                d="m25.829 138.695c-1.104 0-2-.896-2-2v-58c0-1.104.896-2 2-2s2 .896 2 2v58c0 1.105-.896 2-2 2zm0-66c-1.104 0-2-.896-2-2v-.5c0-1.104.896-2 2-2s2 .896 2 2v.5c0 1.105-.896 2-2 2z"
                                fill="#5E9CF7" data-original="#5e9cf7"></path>
                        </g>
                        <g>
                            <path
                                d="m231.171 41.462h-5v114.76c0 2.761-2.239 5-5 5h-201.342v5c0 2.761 2.239 5 5 5h206.343c2.761 0 5-2.239 5-5v-119.76c-.001-2.762-2.239-5-5.001-5z"
                                fill="#377DE2" data-original="#377de2"></path>
                        </g>
                        <g>
                            <path
                                d="m231.171 41.462v119.76c0 2.761-2.239 5-5 5h-206.342c0 2.761 2.239 5 5 5h206.343c2.761 0 5-2.239 5-5v-119.76c-.001-2.762-2.239-5-5.001-5z"
                                fill="#2266D3" data-original="#2266d3"></path>
                        </g>
                    </g>
                </g>
            </g>
            <g>
                <g>
                    <path
                        d="m172.231 114.814h-92.415c-1.104 0-2-.896-2-2s.896-2 2-2h92.415c1.104 0 2 .896 2 2s-.895 2-2 2z"
                        fill="#FFC91D" data-original="#ffc91d"></path>
                </g>
                <g>
                    <path
                        d="m68.876 114.814h-27.045c-1.104 0-2-.896-2-2s.896-2 2-2h27.045c1.104 0 2 .896 2 2s-.896 2-2 2z"
                        fill="#FFC91D" data-original="#ffc91d"></path>
                </g>
                <g>
                    <path
                        d="m214.169 127.578h-27.917c-1.104 0-2-.896-2-2s.896-2 2-2h27.917c1.104 0 2 .896 2 2s-.895 2-2 2z"
                        fill="#FFC91D" data-original="#ffc91d"></path>
                </g>
                <g>
                    <path
                        d="m176.834 127.578h-125.887c-1.104 0-2-.896-2-2s.896-2 2-2h125.887c1.104 0 2 .896 2 2s-.895 2-2 2z"
                        fill="#FFC91D" data-original="#ffc91d"></path>
                </g>
                <g>
                    <path
                        d="m214.169 140.342h-129.634c-1.104 0-2-.896-2-2s.896-2 2-2h129.635c1.104 0 2 .896 2 2s-.896 2-2.001 2z"
                        fill="#FFC91D" data-original="#ffc91d"></path>
                </g>
                <g>
                    <path
                        d="m73.435 140.342h-22.488c-1.104 0-2-.896-2-2s.896-2 2-2h22.487c1.104 0 2 .896 2 2s-.895 2-1.999 2z"
                        fill="#FFC91D" data-original="#ffc91d"></path>
                </g>
                <g>
                    <path
                        d="m172.231 153.106h-98.796c-1.104 0-2-.896-2-2s.896-2 2-2h98.797c1.104 0 2 .896 2 2s-.896 2-2.001 2z"
                        fill="#FFC91D" data-original="#ffc91d"></path>
                </g>
                <g>
                    <path
                        d="m66.141 153.106h-24.31c-1.104 0-2-.896-2-2s.896-2 2-2h24.311c1.104 0 2 .896 2 2s-.896 2-2.001 2z"
                        fill="#FFC91D" data-original="#ffc91d"></path>
                </g>
            </g>
            <g>
                <g>
                    <g>
                        <path
                            d="m63.993 88.656c-.316 0-.637-.075-.936-.234l-22.164-11.773c-.654-.347-1.062-1.026-1.062-1.766s.409-1.419 1.062-1.766l22.164-11.772c.978-.52 2.187-.147 2.704.828.519.976.147 2.186-.828 2.704l-18.839 10.006 18.838 10.006c.976.518 1.347 1.729.828 2.704-.358.677-1.051 1.063-1.767 1.063z"
                            fill="#FFFFFF" data-original="#ffffff"></path>
                    </g>
                    <g>
                        <path
                            d="m89.648 88.656c-.716 0-1.409-.386-1.768-1.063-.519-.975-.147-2.186.828-2.704l18.838-10.006-18.838-10.006c-.976-.518-1.347-1.729-.828-2.704.518-.976 1.728-1.348 2.704-.828l22.164 11.772c.653.347 1.062 1.026 1.062 1.766s-.408 1.419-1.062 1.766l-22.164 11.772c-.298.16-.619.235-.936.235z"
                            fill="#FFFFFF" data-original="#ffffff"></path>
                    </g>
                </g>
                <g>
                    <path
                        d="m69.768 95.196c-.239 0-.482-.043-.718-.134-1.031-.397-1.544-1.554-1.147-2.585l14.105-36.625c.396-1.031 1.553-1.546 2.585-1.147 1.031.397 1.544 1.554 1.147 2.585l-14.106 36.624c-.305.794-1.063 1.282-1.866 1.282z"
                        fill="#FFFFFF" data-original="#ffffff"></path>
                </g>
            </g>
            <g>
                <g>
                    <g>
                        <path
                            d="m174.746 73.961c-21.823 0-39.515-5.456-39.515-12.186v21.953c0 6.73 17.691 12.186 39.515 12.186 21.823 0 39.515-5.456 39.515-12.186 0-.052 0-16.933 0-21.953 0 6.73-17.691 12.186-39.515 12.186z"
                            fill="#A54AF4" data-original="#a54af4"></path>
                    </g>
                    <g>
                        <path
                            d="m210.4 67.034v12.833c0 6.73-17.691 12.186-39.515 12.186-15.435 0-28.794-2.731-35.298-6.709 2.563 5.966 19.112 10.571 39.159 10.571 21.823 0 39.515-5.456 39.515-12.186 0-.052 0-16.933 0-21.953 0 1.883-1.387 3.666-3.861 5.258z"
                            fill="#893ADD" data-original="#893add"></path>
                    </g>
                    <g>
                        <circle cx="147.03" cy="80.123" fill="#FFC91D" r="3.512" data-original="#ffc91d"></circle>
                    </g>
                    <g>
                        <circle cx="160.088" cy="83.556" fill="#FFC91D" r="3.512" data-original="#ffc91d"></circle>
                    </g>
                </g>
                <g>
                    <g>
                        <path
                            d="m174.746 52.008c-21.823 0-39.515-5.456-39.515-12.186v21.953c0 6.73 17.691 12.186 39.515 12.186 21.823 0 39.515-5.456 39.515-12.186 0-.049 0-15.933 0-21.953 0 6.73-17.691 12.186-39.515 12.186z"
                            fill="#A54AF4" data-original="#a54af4"></path>
                    </g>
                    <g>
                        <path
                            d="m210.4 45.081v12.833c0 6.73-17.691 12.186-39.515 12.186-15.435 0-28.794-2.731-35.298-6.71 2.563 5.966 19.112 10.571 39.159 10.571 21.823 0 39.515-5.456 39.515-12.186 0-.049 0-15.933 0-21.953 0 1.884-1.387 3.667-3.861 5.259z"
                            fill="#893ADD" data-original="#893add"></path>
                    </g>
                    <g>
                        <circle cx="147.03" cy="58.17" fill="#FFC91D" r="3.512" data-original="#ffc91d"></circle>
                    </g>
                    <g>
                        <circle cx="160.088" cy="61.603" fill="#FFC91D" r="3.512" data-original="#ffc91d"></circle>
                    </g>
                </g>
                <g>
                    <g>
                        <path
                            d="m174.746 30.177c-21.823 0-39.515-5.456-39.515-12.186v21.831c0 6.73 17.691 12.186 39.515 12.186 21.823 0 39.515-5.456 39.515-12.186 0-.061 0-21.831 0-21.831 0 6.73-17.691 12.186-39.515 12.186z"
                            fill="#A54AF4" data-original="#a54af4"></path>
                    </g>
                    <g>
                        <g>
                            <path
                                d="m210.4 23.25v12.711c0 6.73-17.691 12.186-39.515 12.186-15.435 0-28.794-2.73-35.298-6.709 2.563 5.966 19.112 10.571 39.159 10.571 21.823 0 39.515-5.456 39.515-12.186 0-.061 0-21.83 0-21.831 0 1.883-1.387 3.666-3.861 5.258z"
                                fill="#893ADD" data-original="#893add"></path>
                        </g>
                    </g>
                    <g>
                        <circle cx="147.03" cy="36.218" fill="#FFC91D" r="3.512" data-original="#ffc91d"></circle>
                    </g>
                    <g>
                        <circle cx="160.088" cy="39.65" fill="#FFC91D" r="3.512" data-original="#ffc91d"></circle>
                    </g>
                </g>
                <g>
                    <ellipse cx="174.746" cy="17.991" fill="#893ADD" rx="39.515" ry="12.186" data-original="#893add">
                    </ellipse>
                </g>
                <g>
                    <path
                        d="m210.044 12.515c.227.529.356 1.067.356 1.615 0 6.73-17.691 12.186-39.515 12.186-15.435 0-28.794-2.731-35.297-6.71 2.563 5.966 19.112 10.571 39.159 10.571 21.823 0 39.515-5.456 39.515-12.186-.001-1.97-1.526-3.829-4.218-5.476z"
                        fill="#6C2BC1" data-original="#6c2bc1"></path>
                </g>
            </g>
        </g>
    </g>
</svg>