<svg width="28" height="28" viewBox="0 0 28 28" fill="none" xmlns="http://www.w3.org/2000/svg">
<path d="M2.54544 0H25.454C26.8598 0 27.9994 1.13965 27.9994 2.54544V22.9089C27.9994 24.3147 26.8598 25.4544 25.454 25.4544H2.54544C1.13965 25.4544 0 24.3147 0 22.9089V2.54544C0 1.13965 1.13965 0 2.54544 0Z" fill="#F0EAF9"/>
<path d="M1.27269 5.0918H26.7267C27.4296 5.0918 27.9994 5.66159 27.9994 6.36449V6.36455C27.9994 7.06744 27.4296 7.63724 26.7267 7.63724H1.27269C0.569796 7.63724 0 7.06744 0 6.36455V6.36449C0 5.66159 0.569796 5.0918 1.27269 5.0918Z" fill="#E1D5F3"/>
<path d="M2.54544 0H25.4542C26.86 0 27.9996 1.13965 27.9996 2.54544V6.36357H0V2.54544C0 1.13965 1.13965 0 2.54544 0Z" fill="#5628B4"/>
<path d="M2.54546 0H25.4545C26.1574 0 26.7272 0.569796 26.7272 1.27269V1.27275C26.7272 1.97564 26.1574 2.54544 25.4545 2.54544H2.54546C1.84256 2.54544 1.27277 1.97564 1.27277 1.27275V1.27269C1.27277 0.569796 1.84256 0 2.54546 0Z" fill="#6F48BF"/>
<path d="M1.90914 5.0918H26.0908C26.4422 5.0918 26.7272 5.37673 26.7272 5.72817C26.7272 6.07962 26.4422 6.36455 26.0908 6.36455H1.90914C1.55769 6.36455 1.27277 6.07962 1.27277 5.72817C1.27277 5.37673 1.55769 5.0918 1.90914 5.0918Z" fill="#421198"/>
<path d="M27.3632 8.9082C27.0117 8.9082 26.7268 9.19307 26.7268 9.54452C26.7268 9.54452 26.7268 9.54452 26.7268 9.54458V22.908C26.7268 23.6109 26.157 24.1807 25.4541 24.1807H18.4542C18.1028 24.1807 17.8179 24.4656 17.8179 24.8171C17.8179 25.1685 18.1028 25.4535 18.4542 25.4535H25.4541C26.8599 25.4535 27.9995 24.3138 27.9996 22.908V9.54458C27.9996 9.19307 27.7146 8.9082 27.3632 8.9082Z" fill="#D9C9EF"/>
<path d="M0.636374 11.4531C0.987821 11.4531 1.27275 11.7381 1.27275 12.0895V22.2711C1.27275 22.6226 0.987821 22.9075 0.636374 22.9075C0.284928 22.9075 0 22.6226 0 22.2711V12.0895C0 11.7381 0.284928 11.4531 0.636374 11.4531Z" fill="#DFD2F2"/>
<path d="M3.18191 3.81962C3.53337 3.81962 3.81828 3.53471 3.81828 3.18325C3.81828 2.83179 3.53337 2.54688 3.18191 2.54688C2.83045 2.54688 2.54553 2.83179 2.54553 3.18325C2.54553 3.53471 2.83045 3.81962 3.18191 3.81962Z" fill="#F7B236"/>
<path d="M5.72701 3.81962C6.07847 3.81962 6.36339 3.53471 6.36339 3.18325C6.36339 2.83179 6.07847 2.54688 5.72701 2.54688C5.37555 2.54688 5.09064 2.83179 5.09064 3.18325C5.09064 3.53471 5.37555 3.81962 5.72701 3.81962Z" fill="#B39DDD"/>
<path d="M8.27254 3.81962C8.624 3.81962 8.90892 3.53471 8.90892 3.18325C8.90892 2.83179 8.624 2.54688 8.27254 2.54688C7.92108 2.54688 7.63617 2.83179 7.63617 3.18325C7.63617 3.53471 7.92108 3.81962 8.27254 3.81962Z" fill="#D80E70"/>
<path d="M24.1816 17.817H11.4545C10.7516 17.817 10.1818 17.2472 10.1818 16.5443V10.1809C10.1818 9.478 10.7516 8.9082 11.4545 8.9082H24.1816C24.8845 8.9082 25.4543 9.478 25.4543 10.1809V16.5443C25.4543 17.2472 24.8845 17.817 24.1816 17.817Z" fill="#B39DDD"/>
<path d="M6.36348 13.9988H3.81822C3.11533 13.9988 2.54553 13.429 2.54553 12.7262V10.1809C2.54553 9.478 3.11533 8.9082 3.81822 8.9082H6.36348C7.06637 8.9082 7.63617 9.478 7.63617 10.1809V12.7262C7.63617 13.429 7.06637 13.9988 6.36348 13.9988Z" fill="#B39DDD"/>
<path d="M6.36348 22.907H3.81822C3.11533 22.907 2.54553 22.3372 2.54553 21.6344V19.0891C2.54553 18.3862 3.11533 17.8164 3.81822 17.8164H6.36348C7.06637 17.8164 7.63617 18.3862 7.63617 19.0891V21.6344C7.63617 22.3372 7.06637 22.907 6.36348 22.907Z" fill="#B39DDD"/>
<path d="M10.8181 19.0898H14.636C14.9874 19.0898 15.2723 19.3748 15.2723 19.7262C15.2723 20.0777 14.9874 20.3626 14.636 20.3626H10.8181C10.4666 20.3626 10.1817 20.0777 10.1817 19.7262C10.1817 19.3748 10.4666 19.0898 10.8181 19.0898Z" fill="#B39DDD"/>
<path d="M23.5451 19.0898H24.8178C25.1692 19.0898 25.4541 19.3748 25.4541 19.7262C25.4541 20.0777 25.1692 20.3626 24.8178 20.3626H23.5451C23.1936 20.3626 22.9087 20.0777 22.9087 19.7262C22.9087 19.3748 23.1936 19.0898 23.5451 19.0898Z" fill="#B39DDD"/>
<path d="M17.1819 19.0898H20.9998C21.3512 19.0898 21.6362 19.3748 21.6362 19.7262C21.6362 20.0777 21.3512 20.3626 20.9998 20.3626H17.1819C16.8305 20.3626 16.5455 20.0777 16.5455 19.7262C16.5455 19.3748 16.8305 19.0898 17.1819 19.0898Z" fill="#B39DDD"/>
<path d="M10.8181 21.6348H15.9091C16.2606 21.6348 16.5455 21.9197 16.5455 22.2711C16.5455 22.6226 16.2606 22.9075 15.9091 22.9075H10.8181C10.4667 22.9075 10.1818 22.6226 10.1818 22.2711C10.1818 21.9197 10.4667 21.6348 10.8181 21.6348Z" fill="#B39DDD"/>
<path d="M18.4544 21.6348H19.7271C20.0786 21.6348 20.3635 21.9197 20.3635 22.2711C20.3635 22.6226 20.0786 22.9075 19.7271 22.9075H18.4544C18.103 22.9075 17.8181 22.6226 17.8181 22.2711C17.8181 21.9197 18.103 21.6348 18.4544 21.6348Z" fill="#B39DDD"/>
<path d="M6.9998 16.5462H3.18191C2.83046 16.5462 2.54553 16.2613 2.54553 15.9098C2.54553 15.5584 2.83046 15.2734 3.18191 15.2734H6.9998C7.35124 15.2734 7.63617 15.5584 7.63617 15.9098C7.63617 16.2613 7.35124 16.5462 6.9998 16.5462Z" fill="#B39DDD"/>
<path d="M14 19.0918H12.7274C9.21295 19.0918 6.36386 21.9408 6.36386 25.4554C6.36386 25.4554 6.36386 25.4554 6.36386 25.4555V25.4892C6.36839 26.1844 5.7548 26.7281 5.05961 26.7281H4.45467C4.10323 26.7281 3.8183 27.013 3.8183 27.3645C3.8183 27.7159 4.10323 28.0009 4.45467 28.0009H8.90917C12.4236 28.0008 15.2727 25.1517 15.2727 21.6372V19.0918H14Z" fill="#F7B236"/>
<path d="M15.2727 21.6372V19.0918H14C14 22.6063 11.151 25.4554 7.63643 25.4554H6.36392V25.4891C6.36845 26.1843 5.7548 26.7281 5.05967 26.7281H4.45467C4.10323 26.7281 3.8183 27.013 3.8183 27.3644C3.8183 27.7159 4.10323 28.0008 4.45467 28.0008H8.90917C12.4236 28.0007 15.2727 25.1517 15.2727 21.6372Z" fill="#F58B04"/>
<path d="M27.5729 6.7898C27.1829 6.39982 26.606 6.26362 26.0828 6.43806C21.5972 8.023 17.9016 11.2866 15.774 15.5417L15.2723 16.5449V19.0904H17.8178L18.821 18.5888C23.0761 16.4612 26.3397 12.7655 27.9247 8.27995C28.0991 7.75663 27.9629 7.17979 27.5729 6.7898Z" fill="#D80E70"/>
<path d="M22.7575 10.335C22.2605 9.83799 20.7856 10.507 19.4633 11.8293C18.141 13.1517 17.472 14.6265 17.969 15.1235C18.466 15.6205 19.9408 14.9515 21.2632 13.6292C22.5855 12.3069 23.2545 10.832 22.7575 10.335Z" fill="#E976AF"/>
<path d="M26.0828 6.438C25.8625 6.51586 25.6533 6.61614 25.4369 6.70193C25.2712 12.4083 20.943 17.1285 15.2723 17.7872V19.0904H17.8178L18.821 18.5887C23.0761 16.4611 26.3397 12.7655 27.9247 8.27989C28.179 7.51692 27.7666 6.69227 27.0036 6.438C26.7047 6.33837 26.3817 6.33837 26.0828 6.438Z" fill="#A60068"/>
<path d="M13.9998 19.0903L15.2724 20.363L17.8179 19.0903L15.2724 16.5449L13.9998 19.0903Z" fill="#5628B4"/>
<path d="M14.6878 19.7791L15.2725 20.3638L17.8179 19.0911L16.5968 17.87C16.0696 17.3428 15.215 17.3428 14.6878 17.87C14.5852 17.9726 14.4998 18.091 14.4349 18.2209C14.1751 18.7406 14.2769 19.3683 14.6878 19.7791Z" fill="#420F9B"/>
<path d="M11.3742 20.5016C10.9871 20.1145 9.87168 20.6022 8.88292 21.5909C7.89416 22.5797 7.40645 23.6951 7.79359 24.0822C8.18073 24.4694 9.29611 23.9817 10.2849 22.9929C11.2736 22.0041 11.7613 20.8888 11.3742 20.5016Z" fill="#FBDA9E"/>
</svg>
