<svg width="160" height="66" viewBox="0 0 160 66" fill="none" xmlns="http://www.w3.org/2000/svg">
<path d="M157.323 30.7948C136.197 19.4487 112.445 13.4903 88.4739 13.3247C76.3197 13.2419 64.3224 14.7254 52.4933 17.4643C40.4399 20.2524 28.1064 23.5949 16.6536 28.2925C14.0771 29.3473 15.046 33.9312 17.9328 33.1933C29.2816 30.2918 40.2294 26.0214 51.6167 23.2141C63.1301 20.3756 74.8848 18.6058 86.7512 18.3369C110.717 17.7919 134.535 23.2091 156.172 33.421C157.861 34.2183 158.926 31.656 157.323 30.7948Z" fill="#2A71F8"/>
<path d="M30.5739 8.84064C28.4405 17.5687 33.0305 25.1001 36.1213 32.9659C37.0542 35.3406 37.8947 37.7532 38.6445 40.1925C39.0214 41.4286 39.1331 43.2952 39.8071 44.3389C39.7756 45.6955 40.1012 45.9069 40.7666 44.9713C41.9123 44.2591 41.5699 43.9845 39.7393 44.1475C34.9185 42.5255 28.8474 42.517 23.797 41.76C18.4828 40.9648 13.165 40.1942 7.84761 39.421C7.55845 39.3783 4.51046 39.0704 4.48715 38.9315C4.75255 40.7569 7.12385 37.2217 7.15776 37.1676C8.54483 35.149 10.0023 33.1841 11.5303 31.2719C14.6168 27.4173 17.9764 23.7769 21.6059 20.431C24.8848 17.407 29.2702 14.9603 32.0007 11.4641C33.2394 9.86973 31.549 7.80658 29.7298 8.43079C24.7194 10.1554 20.1631 15.2208 16.4205 18.8674C12.1411 23.0408 8.21865 27.5683 4.73499 32.4252C3.04828 34.773 -1.60153 39.6441 1.52729 42.6316C2.91677 43.9535 5.44623 43.8232 7.17357 44.0726C10.8154 44.5986 14.448 45.1285 18.0908 45.6485C25.0868 46.6475 32.0881 47.7298 39.0949 48.5948C42.0647 48.9626 44.9186 48.7516 44.5431 44.9878C43.3048 32.5508 31.6915 21.9907 33.0839 9.20435C33.2707 7.55567 30.9571 7.27515 30.5739 8.84064Z" fill="#2A71F8"/>
</svg>
