<svg width="119" height="35" viewBox="0 0 119 35" fill="none" xmlns="http://www.w3.org/2000/svg">
<path d="M19.1183 21.4162V1.19489H25.1387V33.3651H19.9915L6.02042 11.5813V33.3651H0V1.19489H6.02042L19.1183 21.4162Z" fill="#030303"/>
<path d="M48.1674 10.3864H53.8661V33.3651H48.1674V31.1132C47.095 32.0323 45.9154 32.7523 44.6286 33.2732C43.3725 33.7634 42.0397 34.0085 40.6303 34.0085C38.3018 34.0085 36.2644 33.4877 34.518 32.446C32.7716 31.4043 31.4235 29.9643 30.4737 28.126C29.5546 26.2877 29.095 24.2196 29.095 21.9217C29.095 19.6238 29.5546 17.5557 30.4737 15.7174C31.4235 13.8791 32.7716 12.4391 34.518 11.3974C36.2644 10.3251 38.3018 9.78894 40.6303 9.78894C42.0397 9.78894 43.3725 10.0494 44.6286 10.5702C45.9154 11.0604 47.095 11.7651 48.1674 12.6843V10.3864ZM41.3657 28.5396C42.6218 28.5396 43.7554 28.2638 44.7665 27.7123C45.8082 27.1302 46.6201 26.3336 47.2022 25.3226C47.815 24.3115 48.1214 23.1626 48.1214 21.8757C48.1214 19.9455 47.4627 18.3677 46.1452 17.1421C44.8584 15.9166 43.2652 15.3038 41.3657 15.3038C39.4354 15.3038 37.8422 15.9319 36.5861 17.1881C35.3605 18.4136 34.7478 19.9915 34.7478 21.9217C34.7478 23.8519 35.3605 25.4451 36.5861 26.7013C37.8422 27.9268 39.4354 28.5396 41.3657 28.5396Z" fill="#030303"/>
<path d="M62.6694 6.57191C61.5971 6.57191 60.7545 6.28085 60.1418 5.69872C59.529 5.11659 59.2226 4.32 59.2226 3.30894C59.2226 2.26723 59.529 1.45532 60.1418 0.873192C60.7545 0.291064 61.5971 0 62.6694 0C63.7418 0 64.5843 0.291064 65.1971 0.873192C65.8099 1.45532 66.1162 2.26723 66.1162 3.30894C66.1162 4.28936 65.7945 5.08596 65.1511 5.69872C64.5384 6.28085 63.7111 6.57191 62.6694 6.57191ZM59.7741 33.3651V10.3864H65.4728V33.3651H59.7741Z" fill="#030303"/>
<path d="M97.6901 9.78894C99.0382 9.78894 100.402 10.08 101.78 10.6621C103.159 11.2136 104.339 12.2247 105.319 13.6953C106.33 15.166 106.836 17.1421 106.836 19.6238V33.3651H101.183V19.6238C101.183 17.9081 100.693 16.6826 99.7122 15.9472C98.7624 15.1813 97.6441 14.7983 96.3573 14.7983C95.2543 14.7983 94.2892 15.1353 93.462 15.8094C92.6348 16.4528 92.0986 17.4945 91.8535 18.9345V19.6238V33.3651H86.2007V19.6238C86.2007 17.9081 85.7105 16.6826 84.7301 15.9472C83.7803 15.1813 82.6467 14.7983 81.3292 14.7983C80.2875 14.7983 79.3377 15.12 78.4799 15.7634C77.6526 16.4068 77.1165 17.4332 76.8714 18.8426V33.3651H71.1726V10.3864H76.8714V12.1787C77.6373 11.4434 78.5105 10.8613 79.4909 10.4323C80.502 10.0034 81.5743 9.78894 82.708 9.78894C84.1173 9.78894 85.542 10.0953 86.982 10.7081C88.422 11.3209 89.5709 12.3472 90.4288 13.7872C91.2254 12.6536 92.2671 11.7038 93.5539 10.9379C94.8407 10.1719 96.2194 9.78894 97.6901 9.78894Z" fill="#030303"/>
<path d="M112.1 30.7915C112.1 29.8111 112.361 29.0604 112.882 28.5396C113.433 27.9881 114.199 27.7123 115.179 27.7123C116.16 27.7123 116.91 27.9881 117.431 28.5396C117.952 29.0604 118.213 29.8111 118.213 30.7915C118.213 31.7719 117.952 32.5379 117.431 33.0894C116.91 33.6408 116.16 33.9166 115.179 33.9166C114.199 33.9166 113.433 33.6408 112.882 33.0894C112.361 32.5379 112.1 31.7719 112.1 30.7915Z" fill="#2A71F8"/>
</svg>
